# xmcd
#
# Track frame offsets: 
#        150
#        17037
#        33290
#        53726
#        67658
#        83062
#
# Disc length: 1412 seconds
#
# Revision: 0
# Processed by: cddbd v1.5.1PL0 Copyright (c) Steve Scherf et al.
# Submitted via: ExactAudioCopy v0.95a5
#
DISCID=3a058206
DTITLE=Wendla - Blue Pearls
DYEAR=2005
DGENRE=
TTITLE0=Dream With Me Of Heaven
TTITLE1=The Chinese Girl
TTITLE2=There She Goes
TTITLE3=Raising Hope
TTITLE4=Trainride To My Dreams
TTITLE5=Truth
EXTD=
EXTT0=
EXTT1=
EXTT2=
EXTT3=
EXTT4=
EXTT5=
PLAYORDER=
